<?xml version="1.0" encoding="UTF-8" standalone="no" ?>
<!DOCTYPE svg PUBLIC "-//W3C//DTD SVG 1.1//EN" "http://www.w3.org/Graphics/SVG/1.1/DTD/svg11.dtd">
<svg xmlns="http://www.w3.org/2000/svg" xmlns:xlink="http://www.w3.org/1999/xlink" version="1.1" width="1117.27" height="479.75" xml:space="preserve">
<desc>Created with Fabric.js 1.6.0-rc.1</desc>
<defs></defs>
  <g transform="translate(541.66 240.11) scale(3.6 3.6)">
   <text font-family="Amerika Sans" font-size="40" font-weight="normal" style="stroke: none; stroke-width: 1; stroke-dasharray: none; stroke-linecap: butt; stroke-linejoin: miter; stroke-miterlimit: 10; fill: #000000; fill-rule: nonzero; opacity: 1;" ><tspan x="-98.86" y="8.98" style="stroke: none; stroke-width: 0; stroke-dasharray: none; stroke-linecap: butt; stroke-linejoin: miter; stroke-miterlimit: 4; fill: #000000; fill-rule: ; opacity: 1;">H</tspan><tspan x="-69.97" y="8.98" style="stroke: none; stroke-width: 0; stroke-dasharray: none; stroke-linecap: butt; stroke-linejoin: miter; stroke-miterlimit: 4; fill: #000000; fill-rule: ; opacity: 1;">e</tspan><tspan x="-52.22" y="8.98" style="stroke: none; stroke-width: 0; stroke-dasharray: none; stroke-linecap: butt; stroke-linejoin: miter; stroke-miterlimit: 4; fill: #000000; fill-rule: ; opacity: 1;">a</tspan><tspan x="-34.46" y="8.98" style="stroke: none; stroke-width: 0; stroke-dasharray: none; stroke-linecap: butt; stroke-linejoin: miter; stroke-miterlimit: 4; fill: #000000; fill-rule: ; opacity: 1;">d</tspan><tspan x="-14.46" y="8.98" style="stroke: none; stroke-width: 0; stroke-dasharray: none; stroke-linecap: butt; stroke-linejoin: miter; stroke-miterlimit: 4; fill: #000000; fill-rule: ; opacity: 1;">p</tspan><tspan x="5.54" y="8.98" style="stroke: none; stroke-width: 0; stroke-dasharray: none; stroke-linecap: butt; stroke-linejoin: miter; stroke-miterlimit: 4; fill: #000000; fill-rule: ; opacity: 1;">h</tspan><tspan x="25.54" y="8.98" style="stroke: none; stroke-width: 0; stroke-dasharray: none; stroke-linecap: butt; stroke-linejoin: miter; stroke-miterlimit: 4; fill: #000000; fill-rule: ; opacity: 1;">o</tspan><tspan x="45.54" y="8.98" style="stroke: none; stroke-width: 0; stroke-dasharray: none; stroke-linecap: butt; stroke-linejoin: miter; stroke-miterlimit: 4; fill: #000000; fill-rule: ; opacity: 1;">n</tspan><tspan x="65.54" y="8.98" style="stroke: none; stroke-width: 0; stroke-dasharray: none; stroke-linecap: butt; stroke-linejoin: miter; stroke-miterlimit: 4; fill: #000000; fill-rule: ; opacity: 1;">e</tspan><tspan x="83.29" y="8.98" style="stroke: none; stroke-width: 0; stroke-dasharray: none; stroke-linecap: butt; stroke-linejoin: miter; stroke-miterlimit: 4; fill: #000000; fill-rule: ; opacity: 1;">s</tspan></text>
 </g>
<g style="stroke: none; stroke-width: 1; stroke-dasharray: none; stroke-linecap: butt; stroke-linejoin: miter; stroke-miterlimit: 10; fill: none; fill-rule: nonzero; opacity: 1;" transform="translate(10 10) scale(1.79 0.75)" >
  <path d="M 306 0 C 137.012 0 0 137.012 0 306 c 0 169.026 137.012 306 306 306 s 306 -136.974 306 -306 C 612 137.012 474.988 0 306 0 z M 306 573.75 C 158.125 573.75 38.25 453.875 38.25 306 C 38.25 158.125 158.125 38.25 306 38.25 c 147.875 0 267.75 119.875 267.75 267.75 C 573.75 453.875 453.875 573.75 306 573.75 z" style="stroke: none; stroke-width: 1; stroke-dasharray: none; stroke-linecap: butt; stroke-linejoin: miter; stroke-miterlimit: 10; fill: rgb(0,0,0); fill-rule: nonzero; opacity: 1;" transform="" stroke-linecap="round" />
</g>
<g style="stroke: none; stroke-width: 1; stroke-dasharray: none; stroke-linecap: butt; stroke-linejoin: miter; stroke-miterlimit: 10; fill: none; fill-rule: nonzero; opacity: 1;" transform="translate(383 387.1) scale(0.54 0.08)" >
  <path d="M 490.413 244.929 c 5.027 -17.092 7.843 -35.125 7.843 -53.814 C 498.266 85.728 412.528 0 307.141 0 C 201.753 0 116.026 85.728 116.026 191.105 c 0 18.698 2.815 36.732 7.852 53.824 C 52.218 272.52 1.141 341.908 1.141 423.176 c 0 105.367 85.737 191.105 191.115 191.105 c 43.146 0 82.863 -14.545 114.885 -38.756 c 32.022 24.211 71.738 38.756 114.895 38.756 c 105.378 0 191.105 -85.729 191.105 -191.105 C 613.141 341.908 562.073 272.52 490.413 244.929 z M 155.682 191.105 c 0 -83.507 67.942 -151.448 151.458 -151.448 s 151.458 67.941 151.458 151.448 c 0 15.149 -2.3 29.752 -6.454 43.563 c -9.835 -1.567 -19.848 -2.607 -30.109 -2.607 c -43.146 0 -82.862 14.544 -114.895 38.754 c -32.022 -24.21 -71.739 -38.754 -114.885 -38.754 c -10.271 0 -20.284 1.041 -30.119 2.617 C 157.982 220.867 155.682 206.254 155.682 191.105 z M 343.704 423.176 c 0 37.564 -13.83 71.906 -36.554 98.408 c -22.733 -26.502 -36.563 -60.844 -36.563 -98.408 c 0 -15.148 2.3 -29.752 6.454 -43.562 c 9.834 1.566 19.838 2.607 30.109 2.607 c 10.271 0 20.274 -1.041 30.109 -2.607 C 341.404 393.412 343.704 408.027 343.704 423.176 z M 253.783 332.67 c -30.773 -11.641 -56.758 -32.956 -74.237 -60.309 c 4.204 -0.357 8.427 -0.645 12.72 -0.645 c 31.695 0 61.121 9.825 85.47 26.54 C 268.584 308.816 260.465 320.287 253.783 332.67 z M 336.556 298.257 c 24.35 -16.715 53.774 -26.54 85.479 -26.54 c 4.293 0 8.507 0.297 12.711 0.645 c -17.479 27.353 -43.464 48.668 -74.237 60.309 C 353.816 320.287 345.707 308.816 336.556 298.257 z M 40.797 423.176 c 0 -64.701 40.866 -119.902 98.081 -141.555 c 21.593 39.984 57.085 71.264 99.895 87.74 c -5.026 17.092 -7.842 35.115 -7.842 53.814 c 0 47.756 17.736 91.369 46.805 124.908 c -24.349 16.715 -53.774 26.539 -85.47 26.539 C 108.739 574.623 40.797 506.682 40.797 423.176 z M 422.035 574.623 c -31.705 0 -61.13 -9.824 -85.479 -26.539 c 29.068 -33.539 46.795 -77.152 46.795 -124.908 c 0 -18.699 -2.815 -36.723 -7.842 -53.814 c 42.809 -16.477 78.302 -47.766 99.895 -87.74 c 57.215 21.652 98.081 76.854 98.081 141.555 C 573.484 506.682 505.553 574.623 422.035 574.623 z" style="stroke: none; stroke-width: 1; stroke-dasharray: none; stroke-linecap: butt; stroke-linejoin: miter; stroke-miterlimit: 10; fill: #000001; fill-rule: nonzero; opacity: 1;" transform="" stroke-linecap="round" />
</g>
</svg>